<svg width="360" height="780" viewBox="0 0 360 780" xmlns="http://www.w3.org/2000/svg">
  <rect width="360" height="780" fill="#F8FAFF"/>
  <rect x="0" y="0" width="360" height="120" fill="#0B5BD3"/>
  <text x="24" y="42" fill="#FFFFFF" font-size="16" font-family="Arial" font-weight="700">Add Task</text>
  <text x="24" y="66" fill="#DCE7FF" font-size="12" font-family="Arial">Assignment / Quiz / Exam / Project</text>

  <text x="24" y="140" fill="#64748B" font-size="11" font-family="Arial" font-weight="700">TITLE</text>
  <rect x="24" y="150" width="312" height="44" rx="10" fill="#FFFFFF" stroke="#E2E8F0"/>

  <text x="24" y="220" fill="#64748B" font-size="11" font-family="Arial" font-weight="700">SUBJECT</text>
  <rect x="24" y="230" width="312" height="44" rx="10" fill="#FFFFFF" stroke="#E2E8F0"/>

  <text x="24" y="300" fill="#64748B" font-size="11" font-family="Arial" font-weight="700">TYPE</text>
  <rect x="24" y="312" width="72" height="32" rx="8" fill="#EEF2FF" stroke="#6366F1"/>
  <rect x="104" y="312" width="72" height="32" rx="8" fill="#FFFFFF" stroke="#E2E8F0"/>
  <rect x="184" y="312" width="72" height="32" rx="8" fill="#FFFFFF" stroke="#E2E8F0"/>
  <rect x="264" y="312" width="72" height="32" rx="8" fill="#FFFFFF" stroke="#E2E8F0"/>
  <text x="36" y="334" fill="#4F46E5" font-size="9" font-family="Arial">Assignment</text>

  <text x="24" y="376" fill="#64748B" font-size="11" font-family="Arial" font-weight="700">DUE DATE</text>
  <rect x="24" y="386" width="312" height="44" rx="10" fill="#FFFFFF" stroke="#E2E8F0"/>
  <text x="36" y="412" fill="#94A3B8" font-size="11" font-family="Arial">Mar 18, 2026  5:00 PM</text>

  <text x="24" y="458" fill="#64748B" font-size="11" font-family="Arial" font-weight="700">PRIORITY</text>
  <rect x="24" y="470" width="90" height="32" rx="8" fill="#FEE2E2"/>
  <rect x="120" y="470" width="90" height="32" rx="8" fill="#FEF3C7"/>
  <rect x="216" y="470" width="90" height="32" rx="8" fill="#DCFCE7"/>

  <rect x="24" y="540" width="312" height="48" rx="12" fill="#0B5BD3"/>
  <text x="150" y="570" fill="#FFFFFF" font-size="14" font-family="Arial" font-weight="700">Save Task</text>
</svg>
