<svg width="360" height="780" viewBox="0 0 360 780" xmlns="http://www.w3.org/2000/svg">
  <rect width="360" height="780" fill="#F8FAFF"/>
  <rect x="0" y="0" width="360" height="120" fill="#1E1B4B"/>
  <text x="24" y="42" fill="#FFFFFF" font-size="16" font-family="Arial" font-weight="700">Admin Dashboard</text>
  <text x="24" y="66" fill="#C7D2FE" font-size="12" font-family="Arial">Overview</text>

  <rect x="24" y="140" width="150" height="72" rx="12" fill="#FFFFFF"/>
  <rect x="186" y="140" width="150" height="72" rx="12" fill="#FFFFFF"/>
  <text x="36" y="170" fill="#64748B" font-size="11" font-family="Arial">Students</text>
  <text x="36" y="196" fill="#0F172A" font-size="18" font-family="Arial" font-weight="700">320</text>
  <text x="198" y="170" fill="#64748B" font-size="11" font-family="Arial">Schedules</text>
  <text x="198" y="196" fill="#0F172A" font-size="18" font-family="Arial" font-weight="700">48</text>

  <text x="24" y="238" fill="#0F172A" font-size="14" font-family="Arial" font-weight="700">Quick Actions</text>
  <rect x="24" y="252" width="312" height="56" rx="12" fill="#EEF2FF"/>
  <text x="40" y="286" fill="#1E40AF" font-size="12" font-family="Arial">Create Schedule</text>

  <rect x="24" y="320" width="312" height="56" rx="12" fill="#E0F2FE"/>
  <text x="40" y="354" fill="#0EA5E9" font-size="12" font-family="Arial">View Schedules</text>

  <rect x="24" y="388" width="312" height="56" rx="12" fill="#DCFCE7"/>
  <text x="40" y="422" fill="#10B981" font-size="12" font-family="Arial">Students</text>

  <rect x="24" y="456" width="312" height="56" rx="12" fill="#FEF3C7"/>
  <text x="40" y="490" fill="#F59E0B" font-size="12" font-family="Arial">Announcements</text>
</svg>
