<svg width="360" height="780" viewBox="0 0 360 780" xmlns="http://www.w3.org/2000/svg">
  <rect width="360" height="780" fill="#F8FAFF"/>
  <rect x="0" y="0" width="360" height="170" fill="#0B5BD3"/>
  <text x="24" y="40" fill="#FFFFFF" font-size="16" font-family="Arial" font-weight="700">Good morning, Student</text>
  <text x="24" y="64" fill="#DCE7FF" font-size="12" font-family="Arial">Monday, March 15</text>

  <rect x="24" y="92" width="312" height="60" rx="12" fill="#FFFFFF"/>
  <text x="36" y="124" fill="#0F172A" font-size="12" font-family="Arial" font-weight="700">Next class: IT 101</text>
  <text x="36" y="142" fill="#64748B" font-size="11" font-family="Arial">08:00 AM - 10:00 AM</text>

  <text x="24" y="198" fill="#0F172A" font-size="14" font-family="Arial" font-weight="700">Today Overview</text>
  <rect x="24" y="210" width="150" height="84" rx="12" fill="#FFFFFF" stroke="#E2E8F0"/>
  <rect x="186" y="210" width="150" height="84" rx="12" fill="#FFFFFF" stroke="#E2E8F0"/>
  <text x="36" y="238" fill="#64748B" font-size="11" font-family="Arial">Classes</text>
  <text x="36" y="268" fill="#0F172A" font-size="20" font-family="Arial" font-weight="700">3</text>
  <text x="198" y="238" fill="#64748B" font-size="11" font-family="Arial">Tasks Due</text>
  <text x="198" y="268" fill="#0F172A" font-size="20" font-family="Arial" font-weight="700">2</text>

  <text x="24" y="326" fill="#0F172A" font-size="14" font-family="Arial" font-weight="700">Upcoming Tasks</text>
  <rect x="24" y="338" width="312" height="64" rx="12" fill="#FFFFFF" stroke="#E2E8F0"/>
  <text x="36" y="366" fill="#0F172A" font-size="12" font-family="Arial">Quiz Review</text>
  <text x="36" y="384" fill="#64748B" font-size="11" font-family="Arial">Due in 2 days</text>

  <text x="24" y="430" fill="#0F172A" font-size="14" font-family="Arial" font-weight="700">Announcements</text>
  <rect x="24" y="442" width="312" height="70" rx="12" fill="#FFFFFF" stroke="#E2E8F0"/>
  <text x="36" y="470" fill="#0F172A" font-size="12" font-family="Arial">Campus Event</text>
  <text x="36" y="488" fill="#64748B" font-size="11" font-family="Arial">Details...</text>

  <text x="24" y="540" fill="#0F172A" font-size="14" font-family="Arial" font-weight="700">Exam Prep</text>
  <rect x="24" y="552" width="312" height="64" rx="12" fill="#FFFFFF" stroke="#E2E8F0"/>
  <text x="36" y="580" fill="#0F172A" font-size="12" font-family="Arial">Physics Midterm</text>
  <text x="36" y="598" fill="#64748B" font-size="11" font-family="Arial">4 sessions planned</text>

  <rect x="0" y="720" width="360" height="60" fill="#FFFFFF" stroke="#E2E8F0"/>
  <text x="30" y="754" fill="#0B5BD3" font-size="10" font-family="Arial">Home</text>
  <text x="90" y="754" fill="#94A3B8" font-size="10" font-family="Arial">Schedule</text>
  <text x="160" y="754" fill="#94A3B8" font-size="10" font-family="Arial">Planner</text>
  <text x="230" y="754" fill="#94A3B8" font-size="10" font-family="Arial">Tasks</text>
  <text x="300" y="754" fill="#94A3B8" font-size="10" font-family="Arial">Profile</text>
</svg>
