<svg width="360" height="780" viewBox="0 0 360 780" xmlns="http://www.w3.org/2000/svg">
  <rect width="360" height="780" fill="#F8FAFF"/>
  <rect x="0" y="0" width="360" height="230" fill="#0B5BD3"/>
  <text x="24" y="42" fill="#FFFFFF" font-size="18" font-family="Arial" font-weight="700">CTU Danao Time Manager</text>
  <rect x="24" y="70" width="64" height="64" rx="12" fill="#FFFFFF"/>
  <text x="34" y="108" fill="#0B5BD3" font-size="12" font-family="Arial" font-weight="700">LOGO</text>
  <text x="24" y="150" fill="#FFFFFF" font-size="14" font-family="Arial">Plan - Study - Succeed</text>

  <rect x="0" y="200" width="360" height="580" rx="28" fill="#FFFFFF"/>
  <text x="24" y="252" fill="#0F172A" font-size="20" font-family="Arial" font-weight="700">Welcome back</text>
  <text x="24" y="276" fill="#64748B" font-size="12" font-family="Arial">Sign in to continue</text>

  <text x="24" y="322" fill="#64748B" font-size="11" font-family="Arial" font-weight="700">EMAIL ADDRESS</text>
  <rect x="24" y="332" width="312" height="44" rx="10" fill="#F8FAFC" stroke="#E2E8F0"/>
  <text x="38" y="360" fill="#94A3B8" font-size="12" font-family="Arial">yourname@ctu.edu.ph</text>

  <text x="24" y="412" fill="#64748B" font-size="11" font-family="Arial" font-weight="700">PASSWORD</text>
  <rect x="24" y="422" width="312" height="44" rx="10" fill="#F8FAFC" stroke="#E2E8F0"/>
  <text x="38" y="450" fill="#94A3B8" font-size="12" font-family="Arial">????????</text>

  <rect x="24" y="488" width="312" height="48" rx="12" fill="#0B5BD3"/>
  <text x="160" y="518" fill="#FFFFFF" font-size="14" font-family="Arial" font-weight="700">Sign In</text>

  <text x="24" y="568" fill="#94A3B8" font-size="11" font-family="Arial">New to CTU Danao Time Manager?</text>
  <rect x="24" y="584" width="312" height="40" rx="10" fill="#FFFFFF" stroke="#0B5BD3"/>
  <text x="110" y="608" fill="#0B5BD3" font-size="12" font-family="Arial" font-weight="700">Create an Account</text>

  <text x="88" y="660" fill="#64748B" font-size="11" font-family="Arial">View Terms of Use (EULA)</text>
</svg>
