<svg width="360" height="780" viewBox="0 0 360 780" xmlns="http://www.w3.org/2000/svg">
  <rect width="360" height="780" fill="#F8FAFF"/>
  <rect x="0" y="0" width="360" height="120" fill="#0B5BD3"/>
  <text x="24" y="42" fill="#FFFFFF" font-size="16" font-family="Arial" font-weight="700">Notification Settings</text>
  <text x="24" y="66" fill="#DCE7FF" font-size="12" font-family="Arial">Customize reminders</text>

  <rect x="24" y="140" width="312" height="70" rx="12" fill="#FFFFFF" stroke="#E2E8F0"/>
  <text x="36" y="170" fill="#0F172A" font-size="12" font-family="Arial">Class Reminder</text>
  <text x="36" y="188" fill="#64748B" font-size="11" font-family="Arial">15 minutes before class</text>
  <rect x="280" y="160" width="44" height="24" rx="12" fill="#0B5BD3"/>
  <circle cx="304" cy="172" r="10" fill="#FFFFFF"/>

  <rect x="24" y="222" width="312" height="70" rx="12" fill="#FFFFFF" stroke="#E2E8F0"/>
  <text x="36" y="252" fill="#0F172A" font-size="12" font-family="Arial">Deadline Warnings</text>
  <text x="36" y="270" fill="#64748B" font-size="11" font-family="Arial">7d, 3d, 1d, due time</text>
  <rect x="280" y="242" width="44" height="24" rx="12" fill="#0B5BD3"/>
  <circle cx="304" cy="254" r="10" fill="#FFFFFF"/>

  <rect x="24" y="304" width="312" height="70" rx="12" fill="#FFFFFF" stroke="#E2E8F0"/>
  <text x="36" y="334" fill="#0F172A" font-size="12" font-family="Arial">Morning Briefing</text>
  <text x="36" y="352" fill="#64748B" font-size="11" font-family="Arial">Daily at 7:00 AM</text>
  <rect x="280" y="324" width="44" height="24" rx="12" fill="#E2E8F0"/>
  <circle cx="294" cy="336" r="10" fill="#FFFFFF"/>

  <rect x="24" y="386" width="312" height="70" rx="12" fill="#FFFFFF" stroke="#E2E8F0"/>
  <text x="36" y="416" fill="#0F172A" font-size="12" font-family="Arial">Daily Audit</text>
  <text x="36" y="434" fill="#64748B" font-size="11" font-family="Arial">Daily at 9:00 PM</text>
  <rect x="280" y="406" width="44" height="24" rx="12" fill="#0B5BD3"/>
  <circle cx="304" cy="418" r="10" fill="#FFFFFF"/>

  <rect x="24" y="468" width="312" height="70" rx="12" fill="#FFFFFF" stroke="#E2E8F0"/>
  <text x="36" y="498" fill="#0F172A" font-size="12" font-family="Arial">Sunday Planning</text>
  <text x="36" y="516" fill="#64748B" font-size="11" font-family="Arial">Weekly at 6:00 PM</text>
  <rect x="280" y="488" width="44" height="24" rx="12" fill="#0B5BD3"/>
  <circle cx="304" cy="500" r="10" fill="#FFFFFF"/>
</svg>
