<svg width="360" height="780" viewBox="0 0 360 780" xmlns="http://www.w3.org/2000/svg">
  <rect width="360" height="780" fill="#F8FAFF"/>
  <rect x="0" y="0" width="360" height="120" fill="#6366F1"/>
  <text x="24" y="42" fill="#FFFFFF" font-size="16" font-family="Arial" font-weight="700">Planner</text>
  <text x="24" y="66" fill="#E0E7FF" font-size="12" font-family="Arial">Day / Week / Month</text>

  <rect x="24" y="140" width="312" height="36" rx="10" fill="#FFFFFF"/>
  <text x="40" y="164" fill="#0F172A" font-size="12" font-family="Arial" font-weight="700">Day Plan - Monday</text>

  <rect x="24" y="190" width="312" height="68" rx="12" fill="#FFFFFF" stroke="#E2E8F0"/>
  <text x="36" y="220" fill="#0F172A" font-size="12" font-family="Arial">08:00 - 09:00</text>
  <text x="36" y="238" fill="#64748B" font-size="11" font-family="Arial">Study block: IT 101</text>

  <rect x="24" y="270" width="312" height="68" rx="12" fill="#FFFFFF" stroke="#E2E8F0"/>
  <text x="36" y="300" fill="#0F172A" font-size="12" font-family="Arial">09:30 - 10:30</text>
  <text x="36" y="318" fill="#64748B" font-size="11" font-family="Arial">Assignment: Database</text>

  <rect x="24" y="350" width="312" height="68" rx="12" fill="#FFFFFF" stroke="#E2E8F0"/>
  <text x="36" y="380" fill="#0F172A" font-size="12" font-family="Arial">11:00 - 12:00</text>
  <text x="36" y="398" fill="#64748B" font-size="11" font-family="Arial">Review notes</text>

  <rect x="24" y="450" width="312" height="48" rx="12" fill="#6366F1"/>
  <text x="132" y="480" fill="#FFFFFF" font-size="13" font-family="Arial" font-weight="700">Auto Plan</text>

  <rect x="0" y="720" width="360" height="60" fill="#FFFFFF" stroke="#E2E8F0"/>
  <text x="30" y="754" fill="#94A3B8" font-size="10" font-family="Arial">Home</text>
  <text x="90" y="754" fill="#94A3B8" font-size="10" font-family="Arial">Schedule</text>
  <text x="160" y="754" fill="#0B5BD3" font-size="10" font-family="Arial">Planner</text>
  <text x="230" y="754" fill="#94A3B8" font-size="10" font-family="Arial">Tasks</text>
  <text x="300" y="754" fill="#94A3B8" font-size="10" font-family="Arial">Profile</text>
</svg>
