<svg width="360" height="780" viewBox="0 0 360 780" xmlns="http://www.w3.org/2000/svg">
  <rect width="360" height="780" fill="#F8FAFF"/>
  <rect x="0" y="0" width="360" height="120" fill="#0EA5E9"/>
  <text x="24" y="42" fill="#FFFFFF" font-size="16" font-family="Arial" font-weight="700">Weekly Schedule</text>
  <text x="24" y="66" fill="#D8F1FF" font-size="12" font-family="Arial">Mon - Sat</text>

  <rect x="16" y="140" width="328" height="540" rx="12" fill="#FFFFFF" stroke="#E2E8F0"/>
  <rect x="32" y="160" width="64" height="30" fill="#F1F5F9"/>
  <rect x="100" y="160" width="60" height="30" fill="#F1F5F9"/>
  <rect x="164" y="160" width="60" height="30" fill="#F1F5F9"/>
  <rect x="228" y="160" width="60" height="30" fill="#F1F5F9"/>
  <rect x="292" y="160" width="40" height="30" fill="#F1F5F9"/>
  <text x="36" y="180" fill="#64748B" font-size="10" font-family="Arial">Time</text>
  <text x="106" y="180" fill="#64748B" font-size="10" font-family="Arial">Mon</text>
  <text x="170" y="180" fill="#64748B" font-size="10" font-family="Arial">Tue</text>
  <text x="234" y="180" fill="#64748B" font-size="10" font-family="Arial">Wed</text>
  <text x="296" y="180" fill="#64748B" font-size="10" font-family="Arial">Thu</text>

  <rect x="32" y="210" width="300" height="1" fill="#E2E8F0"/>
  <rect x="32" y="250" width="300" height="1" fill="#E2E8F0"/>
  <rect x="32" y="290" width="300" height="1" fill="#E2E8F0"/>
  <rect x="32" y="330" width="300" height="1" fill="#E2E8F0"/>
  <rect x="32" y="370" width="300" height="1" fill="#E2E8F0"/>
  <text x="36" y="232" fill="#94A3B8" font-size="10" font-family="Arial">08:00</text>
  <text x="36" y="272" fill="#94A3B8" font-size="10" font-family="Arial">09:00</text>
  <text x="36" y="312" fill="#94A3B8" font-size="10" font-family="Arial">10:00</text>
  <text x="36" y="352" fill="#94A3B8" font-size="10" font-family="Arial">11:00</text>

  <rect x="102" y="220" width="60" height="60" rx="6" fill="#DBEAFE"/>
  <text x="108" y="250" fill="#1E40AF" font-size="9" font-family="Arial">IT 101</text>
  <rect x="166" y="300" width="60" height="60" rx="6" fill="#EDE9FE"/>
  <text x="172" y="330" fill="#4C1D95" font-size="9" font-family="Arial">Math</text>

  <rect x="0" y="720" width="360" height="60" fill="#FFFFFF" stroke="#E2E8F0"/>
  <text x="30" y="754" fill="#94A3B8" font-size="10" font-family="Arial">Home</text>
  <text x="90" y="754" fill="#0B5BD3" font-size="10" font-family="Arial">Schedule</text>
  <text x="160" y="754" fill="#94A3B8" font-size="10" font-family="Arial">Planner</text>
  <text x="230" y="754" fill="#94A3B8" font-size="10" font-family="Arial">Tasks</text>
  <text x="300" y="754" fill="#94A3B8" font-size="10" font-family="Arial">Profile</text>
</svg>
